<svg width="19" height="12" viewBox="0 0 19 12" fill="none" xmlns="http://www.w3.org/2000/svg">
<path d="M17.4 0H8.75703C8.40504 0 5.90025 0.202286 5.63546 0.45L0.198795 5.54829C0.136631 5.60313 0.0865663 5.67203 0.0521956 5.75006C0.0178249 5.82808 0 5.91329 0 5.99957C0 6.08585 0.0178249 6.17106 0.0521956 6.24908C0.0865663 6.32711 0.136631 6.39602 0.198795 6.45086L5.63546 11.5483C5.90025 11.796 6.40504 12 8.75703 12H17.4C18.28 12 19 11.2286 19 10.2857V1.71429C19 0.771429 18.28 0 17.4 0ZM14.1529 9.42857L12.1073 7.23686L10.0626 9.42857L8.90823 8.19171L10.953 6L8.90823 3.80829L10.0626 2.57143L12.1081 4.76143L14.1521 2.57143L15.3073 3.80829L13.2625 6L15.3081 8.19L14.1529 9.42857Z" fill="#2D77FE"/>
</svg>
